<?xml version="1.0" encoding="utf-8"?>
<!-- Generator: Adobe Illustrator 25.2.1, SVG Export Plug-In . SVG Version: 6.00 Build 0)  -->
<svg version="1.1" id="Capa_1" xmlns="http://www.w3.org/2000/svg" xmlns:xlink="http://www.w3.org/1999/xlink" x="0px" y="0px"
	 viewBox="0 0 140.8 140.8" style="enable-background:new 0 0 140.8 140.8;" xml:space="preserve">
<style type="text/css">
	.st0{fill:#1B3750;}
	.st1{fill:#FFFFFF;}
</style>
<g>
	<circle class="st0" cx="70.4" cy="70.4" r="70.4"/>
	<g>
		<g>
			<g>
				<path class="st1" d="M124.2,80.4c1.2-3.1,1.8-6.5,1.8-9.9c0-3.3-0.6-6.5-1.7-9.6c-1.2-3.1-2.8-5.9-5-8.4c-2.1-2.5-4.7-4.5-7.7-6
					c-2.9-1.5-6.2-2.3-9.9-2.3c-3.5,0-6.7,0.7-9.8,2.2c-0.1,0-0.1,0.1-0.2,0.1v7c0.8-0.6,1.6-1.1,2.4-1.6c2.2-1.2,4.7-1.7,7.5-1.7
					c2.6,0,5,0.6,7.2,1.7c2.2,1.1,4,2.6,5.6,4.5c1.6,1.9,2.8,4.1,3.7,6.5c0.9,2.4,1.3,5,1.3,7.6c0,2.5-0.4,4.9-1.2,7.2
					c-0.8,2.3-1.9,4.5-3.3,6.4l-3.9-4.6h-6.4l6.9,8.1c-1.3,1-2.9,1.8-4.5,2.4c-1.7,0.6-3.4,0.9-5.3,0.9c-2.7,0-5.1-0.6-7.3-1.7
					c-0.9-0.5-1.8-1-2.6-1.6v7c2.9,1.5,6.2,2.2,9.8,2.2c2.6,0,5.1-0.4,7.5-1.2c2.3-0.8,4.5-2,6.4-3.4l3.7,4.2h6.4l-6.5-7.5
					C121.3,86.4,123,83.6,124.2,80.4z"/>
			</g>
			<g>
				<polygon class="st1" points="75.3,44.1 56.3,78.1 37.4,44.1 30.4,44.1 37,56 37,56 54.5,87 58.2,87 75.6,56 75.6,96.4 
					82.3,96.4 82.3,44.1 				"/>
			</g>
			<g>
				<polygon class="st1" points="21.3,90.5 21.3,44.1 14.7,44.1 14.7,96.4 35.7,96.4 35.7,90.5 				"/>
			</g>
		</g>
	</g>
</g>
</svg>
