<?xml version="1.0" encoding="utf-8"?>
<!-- Generator: Adobe Illustrator 25.2.1, SVG Export Plug-In . SVG Version: 6.00 Build 0)  -->
<svg version="1.1" id="Capa_1" xmlns="http://www.w3.org/2000/svg" xmlns:xlink="http://www.w3.org/1999/xlink" x="0px" y="0px"
	 viewBox="0 0 85 85" style="enable-background:new 0 0 85 85;" xml:space="preserve">
<style type="text/css">
	.st0{fill:#A6B6D6;}
</style>
<g>
	<path class="st0" d="M42.5,0C19.1,0,0,19.1,0,42.5S19.1,85,42.5,85S85,65.9,85,42.5S66,0,42.5,0z M17.1,65.7c0-0.1,0-0.2,0-0.3
		c0-11,0-22.1,0-33.1c0-0.1,0-0.2,0-0.3c0.2,0,10.9-0.1,11.2,0c0,0.1,0,0.2,0,0.2c0,1.4,0,2.9,0,4.3c0,9.6,0,19.3,0,29v0.1
		C24.6,65.7,20.8,65.7,17.1,65.7z M28.8,23.1c-0.4,1.3-1.2,2.3-2.3,3.1c-0.9,0.6-1.7,0.9-2.7,1.1c-0.8,0.1-1.6,0.1-2.4,0
		c-2.5-0.4-4.3-2.1-4.8-4.1c-0.4-1.4-0.3-2.9,0.5-4.3c0.6-1.1,1.3-1.8,2.4-2.3c0.8-0.4,1.6-0.6,2.5-0.7c0.1,0,0.2,0,0.2,0
		c0.4,0,0.7,0,1.1,0c0.2,0,0.4,0,0.6,0.1c1.2,0.2,2.2,0.6,3.1,1.3c1.2,1,1.7,2.1,1.9,3.6C29.1,21.5,29.1,22.4,28.8,23.1z M68.6,65.7
		c-3.8,0-7.4,0-11.2,0c0-0.1,0-0.2,0-0.3c0-5.9,0-11.7,0-17.5c0-1,0-1.9-0.2-2.9c-0.2-0.9-0.4-1.6-0.9-2.4c-0.7-1.2-1.6-1.9-2.9-2.3
		c-0.9-0.2-1.7-0.3-2.6-0.2c-0.7,0.1-1.3,0.3-1.9,0.6c-0.9,0.5-1.4,1.2-2,1.8c-0.5,0.7-0.9,1.4-1.1,2.2c-0.2,0.6-0.2,1.3-0.2,1.8
		c0,5.3,0,10.6,0,15.9c0,1.1,0,2,0,3.1c-3.8,0-7.5,0-11.2,0c0-0.4,0-0.9,0-1.3c0-7.3,0.1-14.8,0.1-22.1c0-2.6,0-5.2,0-7.8
		c0-0.9,0-1.6-0.1-2.5c0,0,0,0,0-0.1c0.2,0,10.9,0,11.2,0c0,1.5,0,3.1,0,4.7c0.1,0,0.1-0.1,0.2-0.2c0.7-1,1.4-1.8,2.3-2.6
		c1.5-1.3,3.3-2.1,5.2-2.5c1.2-0.2,2.3-0.3,3.5-0.2c1.4,0.1,2.9,0.4,4.2,1c1.3,0.6,2.5,1.3,3.6,2.4c1.4,1.4,2.4,3.1,3,4.9
		c0.4,1.3,0.7,2.5,0.9,3.8c0.1,0.7,0.1,1.3,0.1,1.9c0,0.1,0,0.2,0,0.3C68.6,52.3,68.6,58.9,68.6,65.7z"/>
</g>
</svg>
