<?xml version="1.0" encoding="utf-8"?>
<!-- Generator: Adobe Illustrator 25.2.1, SVG Export Plug-In . SVG Version: 6.00 Build 0)  -->
<svg version="1.1" id="Capa_1" xmlns="http://www.w3.org/2000/svg" xmlns:xlink="http://www.w3.org/1999/xlink" x="0px" y="0px"
	 viewBox="0 0 104.9 114.9" style="enable-background:new 0 0 104.9 114.9;" xml:space="preserve">
<style type="text/css">
	.st0{fill:#F33932;}
	.st1{fill:none;stroke:#F33932;stroke-width:3;stroke-miterlimit:10;}
	.st2{fill:#F53728;}
</style>
<g>
	<g>
		<path class="st0" d="M75.5,14.9H89V0h2.5v14.9h13.4v2.3H91.4v14.9H89V17.2H75.5L75.5,14.9L75.5,14.9z"/>
	</g>
	<g>
		<g>
			<g>
				<g>
					<polyline class="st1" points="17.4,52.4 29.4,45.7 38.6,52.4 50.1,39.3 59.4,45.8 74,36.2 					"/>
					<g>
						<path class="st2" d="M68,51.4c-0.5-0.2-0.7-0.8-0.5-1.3l6.1-13.6l-14.9,0.2c-0.5,0-1-0.4-1-0.9c0-0.5,0.4-1,1-1l16.4-0.3
							c0.3,0,0.6,0.2,0.8,0.4c0.2,0.3,0.2,0.6,0.1,0.9l-6.7,15c-0.1,0.2-0.2,0.3-0.3,0.4C68.7,51.5,68.4,51.5,68,51.4z"/>
					</g>
				</g>
			</g>
			<g>
				<path class="st1" d="M15.4,69.7v-3.9c0-1.2,1-2.2,2.2-2.2h58.2c1.2,0,2.2,1,2.2,2.2v30.9c0,1.2-1,2.2-2.2,2.2H29.4"/>
				<circle class="st1" cx="46.7" cy="81.3" r="10.2"/>
			</g>
			<g>
				<path class="st1" d="M29.4,98.9v8.9c0,0-3.1,5.6-13.3,5.6s-14.6-5.6-14.6-5.6V74.5c0,0,1.9-4.8,14.4-4.8"/>
				<line class="st1" x1="29.4" y1="96.1" x2="29.4" y2="98.9"/>
				<path class="st1" d="M26.5,71.6c2.6,1.3,2.9,2.9,2.9,2.9v21.5"/>
				<path class="st1" d="M15.9,69.7c5.4,0,8.6,0.9,10.6,1.9"/>
				<path class="st1" d="M1.5,74.5c0,0,4.3,5.6,14.5,5.6s13.3-5.6,13.3-5.6"/>
				<path class="st1" d="M1.5,81.1c0,0,4.3,5.6,14.5,5.6s13.3-5.6,13.3-5.6"/>
				<path class="st1" d="M1.5,87.6c0,0,4.3,5.6,14.5,5.6s13.3-5.6,13.3-5.6"/>
				<path class="st1" d="M1.5,94.2c0,0,4.3,5.6,14.5,5.6s13.3-5.6,13.3-5.6"/>
				<path class="st1" d="M1.5,100.7c0,0,4.3,5.6,14.5,5.6s13.3-5.6,13.3-5.6"/>
			</g>
		</g>
		<g>
			<path class="st0" d="M44.6,83.4c0,0,0.9,0.9,2.2,0.9c0.7,0,1.3-0.3,1.3-1.1c0-1.5-4.2-1.3-4.2-4c0-1.3,0.9-2.3,2.3-2.5v-1.2h1.1
				v1.1c1.4,0.1,2.2,0.9,2.2,0.9L48.7,79c0,0-0.8-0.8-1.9-0.8c-0.7,0-1.3,0.4-1.3,1c0,1.5,4.2,1.2,4.2,4c0,1.2-0.9,2.3-2.4,2.5v1.1
				h-1.1v-1.1c-1.6-0.2-2.5-1.2-2.5-1.2L44.6,83.4z"/>
		</g>
	</g>
</g>
</svg>
