<?xml version="1.0" encoding="utf-8"?>
<!-- Generator: Adobe Illustrator 25.2.1, SVG Export Plug-In . SVG Version: 6.00 Build 0)  -->
<svg version="1.1" id="Capa_1" xmlns="http://www.w3.org/2000/svg" xmlns:xlink="http://www.w3.org/1999/xlink" x="0px" y="0px"
	 viewBox="0 0 93.9 88.1" style="enable-background:new 0 0 93.9 88.1;" xml:space="preserve">
<style type="text/css">
	.st0{fill:none;stroke:#375884;stroke-width:3;stroke-linecap:round;stroke-linejoin:round;stroke-miterlimit:10;}
</style>
<g>
	<path class="st0" d="M67.1,11.9h17.5c4.3,0,7.8,3.5,7.8,7.8V65"/>
	<line class="st0" x1="39.2" y1="11.9" x2="55.7" y2="11.9"/>
	<path class="st0" d="M69.5,86.6H9.3c-4.3,0-7.8-3.5-7.8-7.8V19.7c0-4.3,3.5-7.8,7.8-7.8h18.5"/>
	<path class="st0" d="M69.5,86.6L92.4,65H72.9c-1.9,0-3.4,1.5-3.4,3.4L69.5,86.6L69.5,86.6z"/>
	<line class="st0" x1="1.5" y1="31.6" x2="92.4" y2="31.6"/>
	<g>
		<g>
			<rect x="63.4" y="43.2" class="st0" width="9.5" height="9.5"/>
			<rect x="49.3" y="43.2" class="st0" width="9.5" height="9.5"/>
			<rect x="35.2" y="43.2" class="st0" width="9.5" height="9.5"/>
			<rect x="21" y="43.2" class="st0" width="9.5" height="9.5"/>
		</g>
	</g>
	<g>
		<g>
			<rect x="48.9" y="62.3" class="st0" width="9.5" height="9.5"/>
			<rect x="34.8" y="62.3" class="st0" width="9.5" height="9.5"/>
			<rect x="20.7" y="62.3" class="st0" width="9.5" height="9.5"/>
		</g>
	</g>
	<path class="st0" d="M39.2,11.9v5.3c0,2.8-2.5,5.1-5.7,5.1l0,0c-3.2,0-5.7-2.3-5.7-5.1V6.6c0-2.8,2.5-5.1,5.7-5.1l0,0
		c3.2,0,5.7,2.3,5.7,5.1V11.9"/>
	<path class="st0" d="M67.1,11.9v5.3c0,2.8-2.5,5.1-5.7,5.1l0,0c-3.2,0-5.7-2.3-5.7-5.1v-5.3"/>
	<path class="st0" d="M55.7,11.9V6.6c0-2.8,2.5-5.1,5.7-5.1l0,0c3.2,0,5.7,2.3,5.7,5.1v5.3"/>
</g>
</svg>
