<?xml version="1.0" encoding="utf-8"?>
<!-- Generator: Adobe Illustrator 25.2.1, SVG Export Plug-In . SVG Version: 6.00 Build 0)  -->
<svg version="1.1" id="Capa_1" xmlns="http://www.w3.org/2000/svg" xmlns:xlink="http://www.w3.org/1999/xlink" x="0px" y="0px"
	 viewBox="0 0 88.4 88" style="enable-background:new 0 0 88.4 88;" xml:space="preserve">
<style type="text/css">
	.st0{fill:none;stroke:#F33932;stroke-width:3;stroke-linecap:round;stroke-linejoin:round;stroke-miterlimit:10;}
</style>
<g>
	<g>
		<path class="st0" d="M44.2,61.4H8.5c-3.9,0-7-3.2-7-7V8.5c0-3.9,3.2-7,7-7h71.4c3.9,0,7,3.2,7,7v45.9c0,3.9-3.2,7-7,7h-5.8"/>
		<line class="st0" x1="13.7" y1="17.2" x2="73.1" y2="17.2"/>
		<line class="st0" x1="13.7" y1="30.2" x2="73.1" y2="30.2"/>
		<line class="st0" x1="13.7" y1="43.1" x2="33.2" y2="43.1"/>
		<g>
			<g>
				<circle class="st0" cx="59" cy="55.2" r="9.6"/>
				<g>
					<path class="st0" d="M77.1,55.6c0,1.8-3.2,3.1-3.7,4.7c-0.6,1.7,1.3,4.6,0.3,6s-4.3,0.6-5.8,1.6c-1.4,1-1.6,4.4-3.3,5
						c-1.6,0.5-3.8-2.1-5.6-2.1s-4,2.6-5.6,2.1c-1.7-0.6-1.9-4-3.3-5c-1.4-1-4.7-0.2-5.8-1.6c-1-1.4,0.8-4.3,0.3-6
						c-0.5-1.6-3.7-2.9-3.7-4.7s3.2-3.1,3.7-4.7c0.6-1.7-1.3-4.6-0.3-6s4.3-0.6,5.8-1.6c1.4-1,1.6-4.4,3.3-5
						c1.6-0.5,3.8,2.1,5.6,2.1s4-2.6,5.6-2.1c1.7,0.6,1.9,4,3.3,5s4.7,0.2,5.8,1.6c1,1.4-0.8,4.3-0.3,6
						C73.9,52.6,77.1,53.8,77.1,55.6z"/>
				</g>
			</g>
			<polyline class="st0" points="49.6,68.2 49.6,86.5 59,81.5 68.1,86.5 68.1,68.2 			"/>
		</g>
	</g>
</g>
</svg>
