<?xml version="1.0" encoding="utf-8"?>
<!-- Generator: Adobe Illustrator 25.2.1, SVG Export Plug-In . SVG Version: 6.00 Build 0)  -->
<svg version="1.1" id="Capa_1" xmlns="http://www.w3.org/2000/svg" xmlns:xlink="http://www.w3.org/1999/xlink" x="0px" y="0px"
	 viewBox="0 0 86.6 79.5" style="enable-background:new 0 0 86.6 79.5;" xml:space="preserve">
<style type="text/css">
	.st0{fill:none;stroke:#F33932;stroke-width:3;stroke-linecap:round;stroke-linejoin:round;stroke-miterlimit:10;}
</style>
<g>
	<path class="st0" d="M75.4,78H23.5c-5.3,0-9.6-4.3-9.6-9.6V11.1c0-5.3,4.3-9.6,9.6-9.6h51.9c5.3,0,9.6,4.3,9.6,9.6v57.3
		C85.1,73.7,80.7,78,75.4,78z"/>
	<circle class="st0" cx="54.3" cy="33.3" r="9.5"/>
	<path class="st0" d="M43.6,56.1c0,0,2-6.6,10.7-6.6s9.5,6.6,9.5,6.6"/>
	<line class="st0" x1="27.8" y1="1.5" x2="27.8" y2="78"/>
	<path class="st0" d="M27.8,62.5h-23c-1.7,0-3-1.3-3-3v-2.2c0-1.7,1.3-3,3-3h23V62.5z"/>
	<path class="st0" d="M27.8,43.1h-23c-1.7,0-3-1.3-3-3V38c0-1.7,1.3-3,3-3h23V43.1z"/>
	<path class="st0" d="M27.8,23.8h-23c-1.7,0-3-1.3-3-3v-2.2c0-1.7,1.3-3,3-3h23V23.8z"/>
</g>
</svg>
