<?xml version="1.0" encoding="utf-8"?>
<!-- Generator: Adobe Illustrator 25.2.1, SVG Export Plug-In . SVG Version: 6.00 Build 0)  -->
<svg version="1.1" id="Capa_1" xmlns="http://www.w3.org/2000/svg" xmlns:xlink="http://www.w3.org/1999/xlink" x="0px" y="0px"
	 viewBox="0 0 99.5 100.7" style="enable-background:new 0 0 99.5 100.7;" xml:space="preserve">
<style type="text/css">
	.st0{fill:none;stroke:#305176;stroke-width:3;stroke-linecap:round;stroke-linejoin:round;stroke-miterlimit:10;}
	.st1{fill:#305176;}
</style>
<g>
	<g>
		<line class="st0" x1="5.3" y1="30.9" x2="5.3" y2="94.5"/>
		<line class="st0" x1="68.9" y1="30.9" x2="68.9" y2="94.5"/>
		<line class="st0" x1="16" y1="45.5" x2="5.3" y2="45.5"/>
		<line class="st0" x1="28" y1="45.5" x2="24.5" y2="45.5"/>
		<line class="st0" x1="53.1" y1="45.5" x2="36.6" y2="45.5"/>
		<line class="st0" x1="68.9" y1="45.5" x2="61.5" y2="45.5"/>
		<line class="st0" x1="40.9" y1="63.8" x2="5.3" y2="63.8"/>
		<line class="st0" x1="68.9" y1="63.8" x2="49.4" y2="63.8"/>
		<line class="st0" x1="25.2" y1="82.1" x2="5.3" y2="82.1"/>
		<line class="st0" x1="37.5" y1="82.1" x2="33.7" y2="82.1"/>
		<line class="st0" x1="68.9" y1="82.1" x2="45.9" y2="82.1"/>
		<path class="st0" d="M70.6,99.2H3.9c-1.3,0-2.4-1.1-2.4-2.4l0,0c0-1.3,1.1-2.4,2.4-2.4h66.7c1.3,0,2.4,1.1,2.4,2.4l0,0
			C72.9,98.2,71.9,99.2,70.6,99.2z"/>
		<circle class="st0" cx="20.2" cy="45.5" r="4.2"/>
		<circle class="st0" cx="32.4" cy="45.5" r="4.2"/>
		<circle class="st0" cx="57.3" cy="45.5" r="4.2"/>
		<path class="st0" d="M49.4,63.8c0,2.3-1.9,4.2-4.2,4.2c-2.3,0-4.2-1.9-4.2-4.2c0-2.3,1.9-4.2,4.2-4.2
			C47.5,59.6,49.4,61.5,49.4,63.8"/>
		<circle class="st0" cx="29.4" cy="82.1" r="4.2"/>
		<circle class="st0" cx="41.7" cy="82.1" r="4.2"/>
	</g>
	<g>
		<path class="st1" d="M72,14h12.6V0h2.3v14h12.6v2.1H86.9v14h-2.3v-14H72V14z"/>
	</g>
</g>
</svg>
