<?xml version="1.0" encoding="utf-8"?>
<!-- Generator: Adobe Illustrator 25.2.1, SVG Export Plug-In . SVG Version: 6.00 Build 0)  -->
<svg version="1.1" id="Capa_1" xmlns="http://www.w3.org/2000/svg" xmlns:xlink="http://www.w3.org/1999/xlink" x="0px" y="0px"
	 viewBox="0 0 86.5 114.9" style="enable-background:new 0 0 86.5 114.9;" xml:space="preserve">
<style type="text/css">
	.st0{fill:#1B3750;}
	.st1{fill:none;stroke:#1B3750;stroke-width:3;stroke-linecap:round;stroke-linejoin:round;stroke-miterlimit:10;}
	.st2{fill:none;stroke:#1B3750;stroke-width:2;stroke-linecap:round;stroke-linejoin:round;stroke-miterlimit:10;}
</style>
<g>
	<g>
		<path class="st0" d="M58.2,14.4h13V0h2.4v14.4h12.9v2.2H73.5V31h-2.4V16.6h-13V14.4z"/>
	</g>
	<g>
		<g>
			<path class="st1" d="M38,38.6h11.3c2.9,0,5.2,2.3,5.2,5.2v37.8"/>
			<path class="st1" d="M38.3,101.8H6.7c-2.9,0-5.2-2.3-5.2-5.2V43.8c0-2.9,2.3-5.2,5.2-5.2H18"/>
			<g>
				<path class="st1" d="M37.7,45.4H18.3c-0.1,0-0.2-0.1-0.2-0.2v-8.1c0-0.1,0.1-0.2,0.2-0.2h19.5c0.1,0,0.2,0.1,0.2,0.2v8.1
					C38,45.3,37.9,45.4,37.7,45.4z"/>
				<path class="st1" d="M34.6,36.9c0,0,0.4-6.5-6.6-6.5l0,0c-7.1,0-6.5,6.5-6.5,6.5"/>
			</g>
			<g>
				<circle class="st1" cx="52.2" cy="96.6" r="10.2"/>
				<g>
					<path class="st1" d="M69.3,97c0,1.7-3,2.9-3.5,4.4c-0.5,1.6,1.2,4.3,0.2,5.7c-1,1.3-4.1,0.6-5.5,1.5c-1.3,1-1.5,4.2-3.1,4.7
						c-1.5,0.5-3.6-2-5.3-2c-1.7,0-3.8,2.5-5.3,2c-1.6-0.5-1.8-3.7-3.1-4.7c-1.3-1-4.5-0.2-5.5-1.5c-1-1.3,0.8-4.1,0.2-5.7
						c-0.5-1.5-3.5-2.7-3.5-4.4c0-1.7,3-2.9,3.5-4.4c0.5-1.6-1.2-4.3-0.2-5.7s4.1-0.6,5.5-1.5c1.3-1,1.5-4.2,3.1-4.7
						c1.5-0.5,3.6,2,5.3,2c1.7,0,3.8-2.5,5.3-2c1.6,0.5,1.8,3.7,3.1,4.7c1.3,1,4.5,0.2,5.5,1.5c1,1.3-0.8,4.1-0.2,5.7
						C66.3,94.1,69.3,95.3,69.3,97z"/>
				</g>
			</g>
		</g>
		<g>
			<g>
				<line class="st1" x1="23.7" y1="55.1" x2="41.9" y2="55.1"/>
				<line class="st1" x1="23.7" y1="63.9" x2="41.9" y2="63.9"/>
				<line class="st1" x1="23.7" y1="72.7" x2="41.9" y2="72.7"/>
				<line class="st1" x1="23.7" y1="81.6" x2="41.9" y2="81.6"/>
				<rect x="12.6" y="52.2" class="st2" width="5.9" height="5.9"/>
				<rect x="12.6" y="61" class="st2" width="5.9" height="5.9"/>
				<rect x="12.6" y="69.8" class="st2" width="5.9" height="5.9"/>
				<rect x="12.6" y="78.6" class="st2" width="5.9" height="5.9"/>
			</g>
		</g>
	</g>
</g>
</svg>
