<?xml version="1.0" encoding="utf-8"?>
<!-- Generator: Adobe Illustrator 25.2.1, SVG Export Plug-In . SVG Version: 6.00 Build 0)  -->
<svg version="1.1" id="Capa_1" xmlns="http://www.w3.org/2000/svg" xmlns:xlink="http://www.w3.org/1999/xlink" x="0px" y="0px"
	 viewBox="0 0 163.3 88" style="enable-background:new 0 0 163.3 88;" xml:space="preserve">
<style type="text/css">
	.st0{fill:none;stroke:#F33932;stroke-width:3;stroke-linecap:round;stroke-linejoin:round;stroke-miterlimit:10;}
</style>
<g>
	<g>
		<polyline class="st0" points="34.5,39.8 5.3,27.8 83.6,1.5 161.8,27.8 132.6,39.8 		"/>
		<line class="st0" x1="5.3" y1="27.8" x2="5.3" y2="60.7"/>
		<path class="st0" d="M5.3,86.5L5.3,86.5c-2.1,0-3.8-1.7-3.8-3.8V64.5c0-2.1,1.7-3.8,3.8-3.8l0,0c2.1,0,3.8,1.7,3.8,3.8v18.2
			C9.1,84.8,7.4,86.5,5.3,86.5z"/>
		<path class="st0" d="M34.8,71.3V39.9c0,0,6.2-11.4,48.4-11.4s49,11.4,49,11.4v31.4c0,0-3.5,12.3-48.7,12.3S34.8,71.3,34.8,71.3z"
			/>
		<path class="st0" d="M34.8,71.3c0,0,0-15.3,48.7-15.3s48.7,15.3,48.7,15.3"/>
	</g>
</g>
</svg>
