<?xml version="1.0" encoding="utf-8"?>
<!-- Generator: Adobe Illustrator 25.2.1, SVG Export Plug-In . SVG Version: 6.00 Build 0)  -->
<svg version="1.1" id="Capa_1" xmlns="http://www.w3.org/2000/svg" xmlns:xlink="http://www.w3.org/1999/xlink" x="0px" y="0px"
	 viewBox="0 0 77.9 77.9" style="enable-background:new 0 0 77.9 77.9;" xml:space="preserve">
<style type="text/css">
	.st0{fill:none;stroke:#305176;stroke-width:3;stroke-miterlimit:10;}
	.st1{fill:none;stroke:#305176;stroke-width:3;stroke-linecap:round;stroke-linejoin:round;stroke-miterlimit:10;}
</style>
<path class="st0" d="M33.7,86.5"/>
<g>
	<path class="st1" d="M71,76.4"/>
	<path class="st1" d="M71,76.4H7.9c-3.6,0-6.4-2.9-6.4-6.4v-62c0-3.6,2.9-6.4,6.4-6.4h51.3c3.6,0,6.4,2.9,6.4,6.4V71"/>
	<path class="st1" d="M71,76.4L71,76.4c-3,0-5.4-2.4-5.4-5.4V14.7h7.7c1.7,0,3.1,1.4,3.1,3.1V71C76.4,74,74,76.4,71,76.4z"/>
	<path class="st1" d="M39.3,30.6H10.5c-0.8,0-1.5-0.7-1.5-1.5v-13c0-0.8,0.7-1.5,1.5-1.5h28.8c0.8,0,1.5,0.7,1.5,1.5v13
		C40.8,29.9,40.1,30.6,39.3,30.6z"/>
	<path class="st1" d="M9,66.4V37.6c0-0.8,0.7-1.5,1.5-1.5h13c0.8,0,1.5,0.7,1.5,1.5v28.8c0,0.8-0.7,1.5-1.5,1.5h-13
		C9.7,67.9,9,67.2,9,66.4z"/>
	<line class="st1" x1="46.8" y1="30.2" x2="59.3" y2="30.2"/>
	<line class="st1" x1="32.3" y1="42.7" x2="59.3" y2="42.7"/>
	<line class="st1" x1="32.3" y1="55.3" x2="59.3" y2="55.3"/>
	<line class="st1" x1="32.3" y1="67.9" x2="59.3" y2="67.9"/>
	<line class="st1" x1="46.8" y1="18.8" x2="59.3" y2="18.8"/>
</g>
</svg>
