<?xml version="1.0" encoding="utf-8"?>
<!-- Generator: Adobe Illustrator 25.2.1, SVG Export Plug-In . SVG Version: 6.00 Build 0)  -->
<svg version="1.1" id="Capa_1" xmlns="http://www.w3.org/2000/svg" xmlns:xlink="http://www.w3.org/1999/xlink" x="0px" y="0px"
	 viewBox="0 0 81.4 86.5" style="enable-background:new 0 0 81.4 86.5;" xml:space="preserve">
<style type="text/css">
	.st0{fill:#FFFFFF;}
	.st1{fill:none;stroke:#FFFFFF;stroke-width:2;stroke-linecap:round;stroke-linejoin:round;stroke-miterlimit:10;}
</style>
<g>
	<g>
		<path class="st0" d="M57.6,12.1h10.9V0h2v12.1h10.9V14H70.5v12.1h-2V14H57.6V12.1z"/>
	</g>
	<g>
		<path class="st1" d="M54.4,43.7V33.2H16.3V72H1.5l0,0c0,7.2,5.9,13,13.1,13h1.7h16.9H42c6.9,0,12.6-5.6,12.6-12.6V60.9"/>
		<path class="st1" d="M16.3,72h16c0,6.6,4.9,12.1,11.3,13"/>
		<line class="st1" x1="23.6" y1="41.2" x2="38.9" y2="41.2"/>
		<line class="st1" x1="23.6" y1="48.8" x2="38.9" y2="48.8"/>
		<line class="st1" x1="23.6" y1="56.4" x2="38.9" y2="56.4"/>
		<line class="st1" x1="23.6" y1="64" x2="38.9" y2="64"/>
		<circle class="st1" cx="54.4" cy="52.3" r="8.6"/>
		<line class="st1" x1="69.5" y1="66.9" x2="61" y2="58.3"/>
	</g>
</g>
</svg>
