<?xml version="1.0" encoding="utf-8"?>
<!-- Generator: Adobe Illustrator 25.2.1, SVG Export Plug-In . SVG Version: 6.00 Build 0)  -->
<svg version="1.1" id="Capa_1" xmlns="http://www.w3.org/2000/svg" xmlns:xlink="http://www.w3.org/1999/xlink" x="0px" y="0px"
	 viewBox="0 0 157.9 113.4" style="enable-background:new 0 0 157.9 113.4;" xml:space="preserve">
<style type="text/css">
	.st0{fill:#1B3750;}
</style>
<g>
	<g>
		<g>
			<path class="st0" d="M155.2,51.3c1.8-4.4,2.6-9.2,2.6-14.1c0-4.6-0.8-9.2-2.5-13.6s-4-8.4-7-11.9s-6.6-6.4-10.9-8.5
				c-4.2-2.2-8.9-3.3-14-3.3c-5,0-9.6,1-13.8,3.1c-0.1,0-0.2,0.1-0.3,0.2V13c1.1-0.8,2.2-1.6,3.4-2.3c3.1-1.7,6.6-2.5,10.5-2.5
				c3.7,0,7.1,0.8,10.2,2.4s5.7,3.7,7.9,6.4s4,5.8,5.2,9.2s1.8,7.1,1.8,10.8c0,3.5-0.5,6.9-1.7,10.2c-1.1,3.3-2.7,6.3-4.6,9
				l-5.6-6.5h-9.1l9.8,11.5c-1.9,1.4-4.1,2.6-6.4,3.4c-2.3,0.8-4.8,1.3-7.5,1.3c-3.8,0-7.2-0.8-10.3-2.4c-1.3-0.7-2.5-1.5-3.6-2.3
				v9.9c4.2,2,8.8,3.1,13.9,3.1c3.7,0,7.2-0.6,10.5-1.8c3.3-1.2,6.3-2.8,9.1-4.8l5.2,6h9.1L147.9,63C151,59.7,153.5,55.7,155.2,51.3
				z"/>
		</g>
		<g>
			<polygon class="st0" points="86,-0.1 59.1,48 32.3,-0.1 22.4,-0.1 31.8,16.8 31.8,16.8 56.5,60.6 61.9,60.6 86.4,16.8 86.4,74 
				95.8,74 95.8,-0.1 			"/>
			<polygon class="st0" points="31.8,16.8 31.8,18.9 31.8,18.9 31.8,16.8 			"/>
			<path class="st0" d="M31.8,16.8L31.8,16.8L31.8,16.8z"/>
			<path class="st0" d="M31.8,16.8L31.8,16.8L31.8,16.8z"/>
			<polygon class="st0" points="31.8,16.8 31.8,16.8 31.8,16.8 			"/>
			<path class="st0" d="M31.8,16.8L31.8,16.8L31.8,16.8z"/>
		</g>
		<g>
			<polygon class="st0" points="9.6,65.6 9.6,-0.1 0.3,-0.1 0.3,74 30,74 30,65.6 			"/>
		</g>
	</g>
	<g>
		<path class="st0" d="M11.5,82.6c5.6,0,8.4,2.9,8.4,2.9L19,86.6c0,0-2.8-2.6-7.4-2.6C5.9,84,1.5,88.5,1.5,94.5
			c0,6.1,4.3,10.9,10.2,10.9c5,0,7.9-3.2,7.9-3.2l0.9,1c0,0-3.1,3.6-8.8,3.6C4.9,106.8,0,101.3,0,94.5C0,87.8,5,82.6,11.5,82.6z"/>
		<path class="st0" d="M32.8,89.3c4.8,0,8.7,3.8,8.7,8.7c0,5-3.9,8.9-8.7,8.9s-8.7-3.9-8.7-8.9C24.1,93,28,89.3,32.8,89.3z
			 M32.8,105.4c4,0,7.2-3.3,7.2-7.5c0-4.1-3.2-7.3-7.2-7.3s-7.2,3.1-7.2,7.3C25.6,102.1,28.8,105.4,32.8,105.4z"/>
		<path class="st0" d="M46.1,89.6h1.4v2.9c0,0.8-0.1,1.4-0.1,1.4h0.1c0.6-1.6,2.9-4.7,7.1-4.7c4.3,0,5.5,2.5,5.5,6.5v10.6h-1.4V96.2
			c0-2.9-0.4-5.6-4.1-5.6c-3.1,0-5.9,2.2-6.7,5.3c-0.2,0.7-0.3,1.5-0.3,2.3v8.1h-1.4L46.1,89.6L46.1,89.6z"/>
		<path class="st0" d="M65.1,103.3c0,0,1.9,2.1,5.2,2.1c2,0,3.8-1.1,3.8-3.1c0-4.2-9.2-3.1-9.2-8.5c0-3,2.5-4.5,5.3-4.5
			c3.4,0,4.9,1.8,4.9,1.8l-0.8,1.1c0,0-1.4-1.6-4.2-1.6c-1.9,0-3.8,0.9-3.8,3.1c0,4.3,9.2,3.1,9.2,8.6c0,2.7-2.3,4.5-5.3,4.5
			c-4.1,0-6.1-2.4-6.1-2.4L65.1,103.3z"/>
		<path class="st0" d="M80,89.6h1.4v10.1c0,2.9,0.4,5.6,4.1,5.6c4.2,0,6.9-3.7,6.9-7.6v-8.1h1.4v16.7h-1.5v-2.9
			c0-0.8,0.1-1.4,0.1-1.4h-0.1c-0.6,1.6-2.9,4.7-6.9,4.7c-4.1,0-5.5-2.3-5.5-6.5L80,89.6L80,89.6z"/>
		<path class="st0" d="M99.4,83h1.4v19.6c0,2.3,1.2,2.6,2,2.6c0.3,0,0.5,0,0.5,0v1.3c0,0-0.3,0.1-0.6,0.1c-1,0-3.3-0.4-3.3-3.5V83
			L99.4,83z"/>
		<path class="st0" d="M107.8,91h-2.2v-1.3h2.2V85h1.4v4.7h4.4V91h-4.4v9.2c0,4.4,2.6,5,4,5c0.5,0,0.8-0.1,0.8-0.1v1.3
			c0,0-0.3,0.1-0.8,0.1c-1.8,0-5.3-0.6-5.3-6.2L107.8,91L107.8,91z"/>
		<path class="st0" d="M117.6,83h1.7v2.4h-1.7V83z M117.8,89.6h1.4v16.7h-1.4V89.6z"/>
		<path class="st0" d="M125,89.6h1.4v2.9c0,0.8-0.1,1.4-0.1,1.4h0.1c0.6-1.6,2.9-4.7,7.1-4.7c4.3,0,5.5,2.5,5.5,6.5v10.6h-1.4V96.2
			c0-2.9-0.4-5.6-4.1-5.6c-3.1,0-5.9,2.2-6.7,5.3c-0.2,0.7-0.3,1.5-0.3,2.3v8.1h-1.4L125,89.6L125,89.6z"/>
		<path class="st0" d="M150.1,112c3.6,0,6.4-1.7,6.4-5.7v-1.9c0-0.8,0.1-1.4,0.1-1.4h-0.1c-1,2-2.8,3.4-5.6,3.4
			c-4.3,0-7.4-3.4-7.4-8.6s2.8-8.5,7.2-8.5c4.8,0,5.8,3.3,5.8,3.3h0.1c0,0-0.1-0.3-0.1-0.6v-2.3h1.4v16.6c0,5.1-3.7,7.1-7.6,7.1
			c-1.8,0-3.6-0.5-5.2-1.3l0.7-1.3C145.7,110.8,147.7,112,150.1,112z M156.5,97.7c0-5.4-2.5-7.1-5.8-7.1c-3.6,0-5.7,2.6-5.7,7.1
			s2.5,7.2,6.1,7.2C154,105,156.5,103.1,156.5,97.7z"/>
	</g>
</g>
</svg>
