<?xml version="1.0" encoding="utf-8"?>
<!-- Generator: Adobe Illustrator 25.2.1, SVG Export Plug-In . SVG Version: 6.00 Build 0)  -->
<svg version="1.1" id="Capa_1" xmlns="http://www.w3.org/2000/svg" xmlns:xlink="http://www.w3.org/1999/xlink" x="0px" y="0px"
	 viewBox="0 0 157.5 74.3" style="enable-background:new 0 0 157.5 74.3;" xml:space="preserve">
<style type="text/css">
	.st0{fill:#FFFFFF;}
</style>
<g>
	<g>
		<g>
			<path class="st0" d="M154.9,51.4c1.8-4.4,2.6-9.2,2.6-14.1c0-4.6-0.8-9.2-2.5-13.6s-4-8.4-7-11.9s-6.6-6.4-10.9-8.5
				c-4.2-2.2-8.9-3.3-14-3.3c-5,0-9.6,1-13.8,3.1c-0.1,0-0.2,0.1-0.3,0.2v9.8c1.1-0.8,2.2-1.6,3.4-2.3c3.1-1.7,6.6-2.5,10.5-2.5
				c3.7,0,7.1,0.8,10.2,2.4s5.7,3.7,7.9,6.4s4,5.8,5.2,9.2s1.8,7.1,1.8,10.8c0,3.5-0.5,6.9-1.7,10.2c-1.1,3.3-2.7,6.3-4.6,9
				l-5.6-6.5H127l9.8,11.5c-1.9,1.4-4.1,2.6-6.4,3.4c-2.3,0.8-4.8,1.3-7.5,1.3c-3.8,0-7.2-0.8-10.3-2.4c-1.3-0.7-2.5-1.5-3.6-2.3
				v9.9c4.2,2,8.8,3.1,13.9,3.1c3.7,0,7.2-0.6,10.5-1.8c3.3-1.2,6.3-2.8,9.1-4.8l5.2,6h9.1l-9.2-10.6
				C150.7,59.8,153.2,55.8,154.9,51.4z"/>
		</g>
		<g>
			<polygon class="st0" points="85.7,0 58.8,48.1 32,0 22.1,0 31.5,16.9 31.5,16.9 56.2,60.7 61.6,60.7 86.1,16.9 86.1,74.1 
				95.5,74.1 95.5,0 			"/>
			<polygon class="st0" points="31.5,16.9 31.5,19 31.5,19 31.5,16.9 			"/>
			<path class="st0" d="M31.5,16.9L31.5,16.9L31.5,16.9z"/>
			<path class="st0" d="M31.5,16.9L31.5,16.9L31.5,16.9z"/>
			<polygon class="st0" points="31.5,16.9 31.5,16.9 31.5,16.9 			"/>
			<path class="st0" d="M31.5,16.9L31.5,16.9L31.5,16.9z"/>
		</g>
		<g>
			<polygon class="st0" points="9.3,65.7 9.3,0 0,0 0,74.1 29.7,74.1 29.7,65.7 			"/>
		</g>
	</g>
</g>
</svg>
